<?xml version="1.0" encoding="UTF-8" standalone="no"?>
<!-- Created with Inkscape (http://www.inkscape.org/) -->

<svg
   width="210mm"
   height="210mm"
   viewBox="0 0 210 210"
   version="1.1"
   id="svg3324"
   inkscape:version="1.1.2 (b8e25be833, 2022-02-05)"
   sodipodi:docname="favicon exporting template.svg"
   xmlns:inkscape="http://www.inkscape.org/namespaces/inkscape"
   xmlns:sodipodi="http://sodipodi.sourceforge.net/DTD/sodipodi-0.dtd"
   xmlns="http://www.w3.org/2000/svg"
   xmlns:svg="http://www.w3.org/2000/svg">
  <sodipodi:namedview
     id="namedview3326"
     pagecolor="#505050"
     bordercolor="#eeeeee"
     borderopacity="1"
     inkscape:pageshadow="0"
     inkscape:pageopacity="0"
     inkscape:pagecheckerboard="0"
     inkscape:document-units="mm"
     showgrid="false"
     height="210mm"
     inkscape:zoom="0.63606902"
     inkscape:cx="786.07821"
     inkscape:cy="348.23265"
     inkscape:window-width="1920"
     inkscape:window-height="991"
     inkscape:window-x="-9"
     inkscape:window-y="-9"
     inkscape:window-maximized="1"
     inkscape:current-layer="layer1"
     inkscape:object-paths="true"
     inkscape:snap-intersection-paths="true"
     inkscape:snap-smooth-nodes="true"
     inkscape:snap-midpoints="true"
     inkscape:snap-object-midpoints="false"
     inkscape:snap-center="false"
     inkscape:snap-page="true" />
  <defs
     id="defs3321" />
  <g
     inkscape:label="Layer 1"
     inkscape:groupmode="layer"
     id="layer1">
    <circle
       style="fill:#ffffff;stroke:#000000;stroke-width:0.0352965"
       id="path120360"
       cx="105"
       cy="105"
       r="105" />
    <path
       style="fill:#000000;stroke:#000000;stroke-width:0;stroke-linecap:butt;stroke-linejoin:miter;stroke-miterlimit:4;stroke-dasharray:none;stroke-opacity:1"
       d="m 73.151619,128.38937 c 0,49.30022 0,49.28249 0,49.28249"
       id="path76361" />
    <path
       style="fill:#000000;stroke:#000000;stroke-width:0;stroke-linecap:butt;stroke-linejoin:miter;stroke-miterlimit:4;stroke-dasharray:none;stroke-opacity:1"
       d="m 73.151619,128.38937 c 0,53.67152 0,53.6523 0,53.6523"
       id="path76363" />
    <g
       id="g1169"
       transform="matrix(2.7091503,0,0,2.7091503,-127.95459,-103.25524)">
      <path
         id="path110086"
         style="fill:#5e5e5e;fill-opacity:1;stroke:none;stroke-width:4.98004"
         d="m 71.310064,73.221388 v 7.68149 7.95134 c 6.796315,-6.79631 6.447876,-6.44787 7.681486,-7.68148 v -7.95038 -9.7e-4 z" />
      <path
         id="path76359"
         style="fill:#5e5e5e;fill-opacity:1;stroke:#ffffff;stroke-width:0;stroke-miterlimit:4;stroke-dasharray:none"
         d="m 71.310064,73.221388 v 7.68149 l 7.681482,-7.68149 z" />
      <path
         style="fill:#000000;stroke:#000000;stroke-width:0;stroke-linecap:butt;stroke-linejoin:miter;stroke-miterlimit:4;stroke-dasharray:none;stroke-opacity:1"
         d="m 71.310082,84.491268 c 0,19.329552 0,19.322602 0,19.322602"
         id="path76361-9" />
      <path
         style="fill:#000000;stroke:#000000;stroke-width:0;stroke-linecap:butt;stroke-linejoin:miter;stroke-miterlimit:4;stroke-dasharray:none;stroke-opacity:1"
         d="m 71.310082,84.491268 c 0,21.043442 0,21.035912 0,21.035912"
         id="path76363-1" />
      <path
         style="fill:#000000;stroke:#000000;stroke-width:0;stroke-linecap:butt;stroke-linejoin:miter;stroke-miterlimit:4;stroke-dasharray:none;stroke-opacity:1"
         d="m 78.991565,76.693288 c 0,29.788822 0,29.778152 0,29.778152"
         id="path76365" />
      <path
         style="fill:#5e5e5e;fill-opacity:1;stroke:#000000;stroke-width:0;stroke-linecap:butt;stroke-linejoin:miter;stroke-miterlimit:4;stroke-dasharray:none;stroke-opacity:1"
         d="m 71.310082,84.491268 c 0,21.043442 0,21.035912 0,21.035912"
         id="path76367-1" />
      <g
         id="g76373"
         transform="matrix(0.49702021,0,0,0.49702021,45.684514,-169.94243)"
         style="font-size:192px;font-family:'Nexa Light';-inkscape-font-specification:'Nexa Light, ';letter-spacing:12px;white-space:pre;fill:#5e5e5e;fill-opacity:1;stroke:#ffffff;stroke-width:6.04117;stroke-miterlimit:4;stroke-dasharray:none">
        <path
           id="path76369"
           style="color:#000000;-inkscape-font-specification:'Nexa Light, ';fill:#5e5e5e;fill-opacity:1;stroke:none;stroke-width:6.04117;stroke-miterlimit:4;stroke-dasharray:none"
           transform="translate(-11.513008,-13.375729)"
           d="m 106.79883,461.31445 c -12.096002,0 -25.536283,4.99147 -31.488283,17.85547 L 74.925781,462.27344 H 66.09375 v 42.8164 c 0.30455,0.0122 0.496302,0.0149 0.857422,0.0312 1.05526,0.0499 2.10443,0.19629 3.15625,0.29493 1.41118,0.14877 2.823002,0.28285 4.232422,0.44726 0.0134,0.002 0.01815,0.002 0.03125,0.004 0.0336,-0.0372 0.06529,-0.0711 0.107422,-0.11524 0.092,-0.0964 0.194635,-0.18021 0.296875,-0.26562 0.0201,-0.0168 0.04045,-0.034 0.06055,-0.0508 0.003,-0.0131 0.0068,-0.0254 0.0098,-0.0371 3.4e-4,0.009 0.0029,0.0175 0.0059,0.0254 0.0305,-0.0254 0.0611,-0.051 0.0918,-0.0762 0.0322,-0.1871 -0.004,-0.15312 0.154297,-0.15625 0.0117,-0.009 0.02797,-0.004 0.04297,0 0.003,-0.003 0.0058,-0.005 0.0098,-0.008 0.0237,-0.0183 0.04691,-0.0365 0.07031,-0.0547 0.0191,-0.0746 0.04867,-0.14819 0.07617,-0.20899 0.004,-0.0113 -5.82e-4,0.0199 -0.002,0.0274 0.0387,0.0192 0.0802,0.0344 0.123047,0.0488 0.0242,-0.0518 0.05268,-0.10171 0.08398,-0.15039 v -0.041 c -0.0355,-0.0259 -0.06855,-0.0551 -0.09375,-0.0918 -0.0477,-0.0693 0.01025,-0.0888 0.09375,-0.084 V 501.826 c 0,-17.28 13.632875,-31.48769 31.296875,-31.67969 5.568,0 11.13495,1.34402 16.12695,4.41602 l 4.22461,-7.68164 c -6.336,-3.84 -13.24756,-5.75841 -20.35156,-5.56641 z m -35.027346,68.44532 c -4.87e-4,0.003 5e-4,0.005 0,0.008 0.006,-3.3e-4 0.01909,-0.002 0.02539,-0.002 -0.008,-0.002 -0.01689,-0.004 -0.02539,-0.006 z m 1.751954,21.1914 c 9.62e-4,0.004 0.0028,0.009 0.0039,0.0137 -0.0028,-0.003 -0.0032,-0.008 -0.0039,-0.0137 z" />
        <path
           id="path76371"
           style="color:#000000;-inkscape-font-specification:'Nexa Light, ';fill:#5e5e5e;fill-opacity:1;stroke:none;stroke-width:6.04117;stroke-miterlimit:4;stroke-dasharray:none"
           transform="translate(21.687203,-3.1607858)"
           d="m 73.539062,448.07812 c -10.026177,0.0126 -21.08784,3.35793 -28.61914,11.44727 L 44.681641,449.03516 H 29.871094 v 3.02343 42.75586 c 0.92865,-0.012 1.953106,8.1e-4 3.878906,0.0918 0.72445,0.0343 1.446429,0.11287 2.167969,0.19141 v -40.01563 h 2.851562 l 0.31836,13.94141 5.765625,1.20117 c 5.34876,-11.56023 17.48004,-16.10352 28.74414,-16.10352 h 0.04102 0.04102 c 5.575077,-0.15058 10.988239,1.19078 16.130859,3.79688 l -1.318359,2.39648 c -4.75513,-2.30691 -9.845762,-3.4082 -14.894532,-3.4082 h -0.01563 -0.01758 c -19.26815,0.20944 -34.285156,15.83295 -34.285156,34.70313 v 3.83593 c 0.62015,0.0644 1.239895,0.13087 1.859375,0.20313 0.0154,0.002 0.01615,0.002 0.03125,0.004 0.0336,-0.0372 0.06529,-0.0711 0.107422,-0.11523 0.092,-0.0964 0.194635,-0.18022 0.296875,-0.26563 0.0201,-0.0168 0.04045,-0.034 0.06055,-0.0508 0.003,-0.0131 0.0068,-0.0254 0.0098,-0.0371 3.4e-4,0.009 0.0029,0.0175 0.0059,0.0254 0.0305,-0.0254 0.0611,-0.051 0.0918,-0.0762 0.0322,-0.1871 -0.004,-0.15312 0.154296,-0.15625 0.0117,-0.009 0.02797,-0.004 0.04297,0 0.003,-0.003 0.0058,-0.005 0.0098,-0.008 0.0237,-0.0183 0.04691,-0.0365 0.07031,-0.0547 0.0191,-0.0746 0.04867,-0.14818 0.07617,-0.20898 0.004,-0.0113 -6.29e-4,0.0198 -0.002,0.0273 0.0387,0.0192 0.0802,0.0344 0.123047,0.0488 0.0287,-0.0615 0.0633,-0.12064 0.101562,-0.17773 -0.0428,-0.0287 -0.0817,-0.0625 -0.111328,-0.10547 -0.0723,-0.10498 0.09739,-0.0968 0.234375,-0.0605 0.003,-0.004 0.0058,-0.009 0.0098,-0.0137 0.0282,-0.0351 0.0792,0.0174 0.128906,0.0703 -0.0247,-0.0202 -0.0793,-0.0409 -0.138672,-0.0566 -0.0427,0.0535 -0.0844,0.10829 -0.123047,0.16602 0.0349,0.0234 0.0739,0.0423 0.113282,0.0605 0.0483,-0.0282 0.0826,-0.0508 0.130859,-0.0781 0.01,-0.0208 0.0195,-0.0411 0.0293,-0.0645 0.003,-0.006 8.7e-4,-0.0144 -0.0059,-0.0215 0.016,0.0171 0.03012,0.0331 0.04492,0.0469 0.12215,-0.0685 0.252671,-0.15306 0.337891,-0.20118 0.57084,-0.2578 1.143982,-0.51237 1.701172,-0.79882 0.21966,-0.11298 0.4413,-0.22563 0.65625,-0.34766 v -1.58984 c 0,-15.68582 12.239149,-28.4734 28.292969,-28.6543 5.07395,0.003 10.055284,1.21837 14.521484,3.9668 l 2.705078,1.66406 7.150391,-13.00196 -2.478516,-1.5039 c -6.78056,-4.10943 -14.285646,-6.20514 -21.978516,-6.00196 z m -33.216796,92.65821 c 9.63e-4,0.004 0.0028,0.009 0.0039,0.0137 -0.0028,-0.003 -0.0032,-0.008 -0.0039,-0.0137 z" />
      </g>
      <circle
         style="fill:none;stroke:#000000;stroke-width:2.23516;stroke-miterlimit:4;stroke-dasharray:none;stroke-opacity:1"
         id="path109244"
         cx="75.15081"
         cy="98.627953"
         r="2.6286633" />
    </g>
  </g>
</svg>
